<?xml version="1.0" encoding="UTF-8" standalone="no"?>
<!DOCTYPE svg PUBLIC "-//W3C//DTD SVG 1.1//EN" "http://www.w3.org/Graphics/SVG/1.1/DTD/svg11.dtd">
<svg width="100%" height="100%" viewBox="0 0 128 128" version="1.1" xmlns="http://www.w3.org/2000/svg" xmlns:xlink="http://www.w3.org/1999/xlink" xml:space="preserve" xmlns:serif="http://www.serif.com/" style="fill-rule:evenodd;clip-rule:evenodd;stroke-linejoin:round;stroke-miterlimit:2;">
    <g id="H" transform="matrix(1,0,0,1,-23.6168,37.2637)">
        <path d="M82.034,20.461L70.481,20.461L67.409,29.869C60.881,49.741 62.321,50.701 70.385,50.893L69.521,53.581L39.953,53.581L40.817,50.893C51.089,50.509 50.993,49.837 57.521,29.869L64.433,8.749C70.481,-9.875 69.809,-11.987 61.457,-12.371L62.321,-14.963L91.793,-14.963L90.929,-12.371C80.369,-12.083 80.177,-9.299 74.321,8.749L71.441,17.581L82.927,17.581C86.767,4.799 85.407,2.916 78.007,2.579L78.871,-0.013L109.303,-0.013L108.439,2.579C98.473,2.664 97.201,4.309 92.855,17.581L105.041,17.581L107.921,8.749C113.969,-9.875 113.297,-11.987 104.945,-12.371L105.809,-14.963L135.281,-14.963L134.417,-12.371C123.857,-12.083 123.665,-9.299 117.809,8.749L110.897,29.869C104.369,49.741 105.809,50.701 113.873,50.893L113.009,53.581L83.441,53.581L84.305,50.893C94.577,50.509 94.481,49.837 101.009,29.869L104.081,20.461L91.919,20.461C91.589,21.482 91.241,22.56 90.871,23.699L83.959,44.819C77.623,64.211 76.471,65.651 92.599,65.651C106.999,65.651 117.079,54.515 123.703,44.051L125.815,44.915L115.447,68.435L56.503,68.435L57.367,65.843C67.639,65.555 67.639,64.595 74.071,44.819L80.983,23.699C81.359,22.56 81.709,21.481 82.034,20.461Z" style="fill:white;"/>
    </g>
    <path d="M69.238,54.845L68.303,57.725" style="fill:none;"/>
    <path d="M59.31,54.845L58.417,57.725" style="fill:none;"/>
</svg>
